<svg version="1.1" id="Layer_1" xmlns="http://www.w3.org/2000/svg" xmlns:xlink="http://www.w3.org/1999/xlink" x="0px" y="0px"
	 width="100%" viewBox="0 0 704 704" enable-background="new 0 0 704 704" xml:space="preserve">
<path fill="#000000" opacity="1.000000" stroke="none" 
	d="
M403.109741,448.960938 
	C407.181122,456.836975 410.963348,464.485474 412.484406,472.896271 
	C415.117676,487.457123 411.586761,500.134003 401.684784,511.601135 
	C390.423920,524.641907 376.303528,528.750732 359.899963,528.439453 
	C348.277588,528.218811 336.692688,528.712219 325.492096,524.466675 
	C312.535156,519.555359 297.943909,500.704590 297.428650,485.064941 
	C296.959076,470.813171 302.064697,458.694702 308.753906,446.957306 
	C316.353271,433.622833 323.636017,420.245667 326.026733,404.826569 
	C327.522400,395.180054 326.985504,385.579285 324.434082,376.193451 
	C319.567169,358.289520 310.901459,342.356049 298.464478,328.586548 
	C287.114899,316.020966 275.470062,303.710297 264.130432,291.149231 
	C252.622238,278.401459 239.687149,267.080048 228.382782,254.225128 
	C220.132492,244.843185 210.520523,236.800507 202.738358,226.984436 
	C200.268723,223.869385 200.622360,221.995117 203.240005,219.417664 
	C214.755386,208.079086 226.250397,196.714493 237.494873,185.109451 
	C240.780136,181.718857 242.943008,181.377029 246.302017,184.963791 
	C253.132126,192.257034 260.349091,199.188507 267.427460,206.248215 
	C268.942719,207.759476 270.546417,209.182022 272.478760,210.991318 
	C292.198334,189.842651 312.583160,169.919937 337.483215,154.842606 
	C330.294434,179.958878 319.401550,203.556244 312.797668,229.337769 
	C325.607635,223.031860 336.474792,214.515701 350.135468,208.951416 
	C348.906616,219.547440 349.452820,228.948883 349.363800,238.348114 
	C349.297180,245.385071 352.354858,247.532867 359.206787,245.555588 
	C361.904633,244.777069 361.663635,242.656433 361.606537,240.730347 
	C361.355713,232.269562 360.886108,223.814453 360.699310,215.352814 
	C360.563324,209.194031 361.824677,208.460297 367.213379,211.568207 
	C375.130707,216.134521 382.954681,220.864090 390.776489,225.593475 
	C392.487823,226.628220 394.114319,227.717789 397.133789,227.918869 
	C391.337433,202.700653 379.871704,179.821487 372.334167,155.079620 
	C377.497162,155.178925 380.313568,158.030823 383.206848,160.197540 
	C398.511536,171.658875 412.287354,184.894806 426.166748,197.990387 
	C429.412811,201.053146 432.182098,204.621170 435.171906,207.955688 
	C437.446167,210.492172 439.159363,210.287491 441.674133,207.707779 
	C449.869019,199.301193 458.432678,191.254715 466.821045,183.035568 
	C468.576843,181.315201 469.976929,181.830414 471.494873,183.350281 
	C483.857574,195.728790 496.237946,208.089691 508.626984,220.441864 
	C510.942322,222.750320 510.362152,224.689926 508.263000,226.846741 
	C500.029175,235.306702 491.772797,243.750153 483.745270,252.404251 
	C471.540710,265.561432 458.168274,277.630035 446.309723,291.046112 
	C430.620422,308.795990 412.597931,324.619171 400.000702,344.984283 
	C391.451782,358.804810 385.482758,373.548889 384.187500,390.089722 
	C383.171143,403.068207 386.064270,414.964020 391.384430,426.572784 
	C394.850677,434.136292 398.919312,441.366364 403.109741,448.960938 
M343.730560,489.621429 
	C342.763306,487.687164 341.610870,485.821930 340.859589,483.807129 
	C336.725403,472.719452 334.174011,461.372803 338.807556,449.896423 
	C341.173859,444.035553 345.457062,439.446869 352.355591,438.703522 
	C359.900177,437.890564 365.929047,440.305725 370.272400,446.931030 
	C374.807831,453.849304 374.972198,461.349854 373.902924,469.020172 
	C372.589325,478.442963 369.016418,487.137451 363.809143,495.730957 
	C371.157532,497.361298 377.973358,496.784973 384.695648,496.373718 
	C387.825623,496.182220 390.894562,487.856110 389.092957,483.669159 
	C387.497101,491.780243 381.796967,490.511993 376.579742,490.293671 
	C375.609344,490.253052 374.528259,490.230530 374.071289,489.077454 
	C373.556641,487.778839 374.108673,486.767273 375.118073,486.036255 
	C379.745148,482.685394 382.352020,477.846802 384.439117,472.793518 
	C387.865936,464.496613 388.311523,455.993439 382.445129,448.683350 
	C369.132538,432.094604 346.566498,430.698395 330.931610,445.363251 
	C325.903442,450.079437 323.023132,456.407928 323.607422,463.274200 
	C324.312683,471.561676 328.076599,478.815857 333.945282,484.897888 
	C335.208740,486.207245 337.537262,487.032379 336.889587,489.975098 
	C333.357605,490.628723 329.739716,490.412933 326.115387,490.194244 
	C321.756927,489.931213 323.845459,483.334412 319.066193,482.952423 
	C319.597137,487.581268 322.192474,490.932251 323.971527,494.614563 
	C324.499084,495.706482 325.380371,496.529114 326.688324,496.533783 
	C333.104218,496.556671 339.520233,496.544159 346.079803,496.544159 
	C345.975922,495.337372 346.045868,494.817993 345.873993,494.397461 
	C345.307770,493.012177 344.654022,491.662628 343.730560,489.621429 
z"/>
<path fill="#000000" opacity="1.000000" stroke="none" 
	d="
M488.957031,556.020630 
	C501.349396,530.354309 512.013977,504.459900 518.035950,476.839142 
	C520.296265,466.471863 521.995605,456.020264 523.766907,445.569397 
	C524.491028,441.296967 522.923523,440.294952 519.082336,440.326813 
	C505.584106,440.438843 492.082092,440.229431 478.586487,440.448608 
	C474.131012,440.520966 472.439240,439.252258 472.558289,434.545715 
	C472.861542,422.554016 472.766693,410.548431 472.612122,398.551239 
	C472.565338,394.920471 473.738831,393.585175 477.470215,393.597168 
	C509.801239,393.701141 542.132996,393.715515 574.463806,393.580475 
	C578.628113,393.563080 579.490540,395.326263 579.387329,398.969574 
	C578.771301,420.719147 576.423340,442.275848 572.053955,463.581268 
	C566.437317,490.968353 557.763794,517.430908 546.463196,542.965454 
	C534.159607,570.766174 517.885803,596.106934 497.985291,619.159790 
	C482.438934,637.168884 464.711884,652.570007 444.249786,664.611450 
	C424.034973,676.507263 402.175873,684.192871 378.874573,687.331726 
	C370.842865,688.413635 362.689056,689.390503 354.616516,689.218506 
	C330.017853,688.694580 306.382294,683.614746 283.808319,673.468140 
	C263.735046,664.445557 246.280457,651.829712 230.040085,637.154480 
	C210.232239,619.255615 194.896805,597.934265 181.279922,575.232056 
	C159.260513,538.521179 145.567932,498.682495 137.329834,456.858673 
	C134.962479,444.839874 133.728973,432.650391 132.518127,420.450165 
	C131.775421,412.966858 131.821014,405.524841 131.621735,398.056458 
	C131.537354,394.893921 132.653534,393.612061 135.936615,393.619354 
	C168.601089,393.691742 201.265854,393.685699 233.930344,393.617004 
	C237.081650,393.610382 238.391678,394.623688 238.361023,397.925995 
	C238.243484,410.590698 238.237152,423.258331 238.391663,435.922394 
	C238.435669,439.529327 236.909546,440.445709 233.602585,440.417999 
	C220.104401,440.304871 206.604630,440.360931 193.105499,440.388763 
	C186.533340,440.402313 186.397125,440.709595 187.255051,447.121613 
	C190.588120,472.032501 196.368774,496.358124 205.548447,519.751648 
	C216.742767,548.279297 229.647095,576.021912 249.920425,599.434937 
	C269.470856,622.013123 290.705658,642.802734 318.079132,656.033569 
	C329.006165,661.315125 340.251282,665.928162 352.402374,667.404297 
	C361.211517,668.474365 369.536682,665.485413 377.556641,662.412720 
	C396.501953,655.154053 413.820862,644.917114 429.074432,631.527161 
	C447.738983,615.143005 464.296112,596.786072 477.814941,575.891479 
	C481.857849,569.642822 485.863464,563.276001 488.957031,556.020630 
z"/>
<path fill="#000000" opacity="1.000000" stroke="none" 
	d="
M500.183960,321.109528 
	C491.853455,319.271729 483.926117,317.564728 475.519196,315.754456 
	C475.444946,309.495361 480.534576,306.104553 483.997009,302.126770 
	C492.353027,292.527130 503.116577,286.289734 514.976379,281.876343 
	C516.485168,281.314880 517.948975,280.632721 519.906250,279.807129 
	C516.309509,277.195892 513.208435,279.057159 510.094330,279.419067 
	C490.490875,281.697113 465.549194,303.268555 460.335846,322.209839 
	C458.029877,330.587952 458.262146,338.973175 459.524597,347.334351 
	C462.838593,369.282257 462.132690,390.927429 456.416229,412.473969 
	C451.890320,429.533051 444.776031,445.244446 434.513184,459.589996 
	C431.619720,463.634460 429.154022,467.984711 426.487183,472.191559 
	C425.332001,474.013763 424.199982,475.877045 421.339478,475.838715 
	C418.160248,460.138184 409.994385,446.699615 402.577454,432.809540 
	C396.670868,421.748016 391.767426,409.962799 391.679871,396.988495 
	C391.539825,376.239075 398.650391,357.860687 411.211212,341.694031 
	C422.720428,326.880890 436.055511,313.600189 448.303253,299.412537 
	C466.488159,278.347382 489.329834,263.860535 513.558960,251.212524 
	C525.429749,245.015747 538.270752,241.889908 551.658386,240.464539 
	C558.987610,239.684204 566.258423,239.848572 573.557434,239.674164 
	C575.320068,239.632050 577.222778,239.232361 578.743835,240.458252 
	C579.315125,241.547485 579.137573,242.456863 578.523010,243.354248 
	C567.275574,259.776520 562.095215,278.796814 555.451416,297.193726 
	C553.197632,303.434509 551.147949,309.772552 547.781128,315.546631 
	C544.530151,321.121918 539.809937,324.162842 533.193054,324.394958 
	C522.169983,324.781738 511.292389,323.984344 500.183960,321.109528 
M428.307129,343.805054 
	C416.351532,355.662628 408.271301,369.650055 404.966248,386.263702 
	C404.234344,389.942780 405.232147,392.030182 409.374176,392.890869 
	C420.704132,395.245300 430.562134,392.169128 439.979492,386.039948 
	C446.310059,381.919769 446.788788,375.561188 446.317108,369.402374 
	C445.523224,359.037231 443.638794,348.759247 443.610077,338.310364 
	C443.605286,336.569611 444.190979,334.600586 442.479523,333.217957 
	C437.953369,334.151337 437.953369,334.151337 428.307129,343.805054 
z"/>
<path fill="#000000" opacity="1.000000" stroke="none" 
	d="
M236.516418,275.425842 
	C246.513535,282.995117 255.378265,291.311859 263.572510,300.268829 
	C273.302612,310.904633 282.312836,322.203949 292.142761,332.742096 
	C301.015015,342.253571 307.787323,352.910522 312.636139,364.893158 
	C321.576599,386.987183 320.516724,408.574738 309.575806,429.758942 
	C303.339539,441.833771 295.767212,453.257172 291.734985,466.423248 
	C290.774933,469.558136 290.503204,472.958069 288.386078,476.108246 
	C284.205200,473.782471 282.447998,469.508698 280.114258,465.906769 
	C271.109222,452.008331 261.776825,438.273773 257.053040,422.083527 
	C251.876190,404.340393 247.918427,386.412018 248.717422,367.795532 
	C249.186127,356.875031 251.420593,346.114777 251.742203,335.138489 
	C252.162872,320.780640 246.146835,309.289368 236.372345,299.704865 
	C229.519211,292.984924 221.778595,287.163239 212.985596,282.918671 
	C207.344330,280.195557 201.250641,279.549286 195.251099,278.432159 
	C194.021622,278.203217 192.586258,278.336853 191.377243,279.833160 
	C198.834717,283.563904 206.856766,285.988220 213.607239,290.793152 
	C221.360275,296.311737 228.188278,302.862061 233.687485,310.662140 
	C236.308258,314.379425 235.638977,315.571014 231.291428,316.473206 
	C219.774261,318.863220 208.293701,321.435028 196.755066,323.714325 
	C189.517044,325.144073 182.058655,325.009003 174.882614,323.997772 
	C165.156601,322.627197 161.569275,314.504486 158.534836,306.373474 
	C152.393417,289.917053 147.471451,273.006226 140.028442,257.032532 
	C138.195526,253.098831 136.062653,249.363541 133.721451,245.728897 
	C132.739471,244.204422 131.609543,242.724182 132.344971,239.667587 
	C139.158463,239.667587 146.258774,239.145691 153.254303,239.779831 
	C166.474579,240.978195 179.515686,243.318466 191.778015,248.815552 
	C206.997528,255.638351 221.216446,264.138062 234.544632,274.149139 
	C235.073700,274.546539 235.675827,274.846710 236.516418,275.425842 
M293.519562,393.648468 
	C305.219177,393.629852 307.718079,391.472107 305.245361,382.768524 
	C299.766235,363.482758 288.892334,347.733459 273.232178,335.260406 
	C271.941315,334.232239 270.609161,332.823456 268.818665,333.829559 
	C267.122528,334.782562 267.505676,336.690826 267.336731,338.332550 
	C266.406372,347.374573 265.851379,356.443390 264.666504,365.475433 
	C263.724335,372.657196 262.955414,380.698181 269.981354,385.585449 
	C276.646179,390.221466 284.072479,393.758270 293.519562,393.648468 
z"/>
<path fill="#000000" opacity="1.000000" stroke="none" 
	d="
M375.585632,539.524414 
	C392.444550,534.226807 403.890778,522.750916 413.772186,509.264832 
	C427.565491,490.439819 438.513702,469.940094 449.298187,449.335602 
	C450.248230,447.520538 450.658234,444.631531 453.417511,444.993134 
	C456.416077,445.386078 456.074341,448.236664 456.401398,450.518524 
	C460.367920,478.190399 464.360107,505.858612 468.397491,533.520203 
	C468.994354,537.609436 469.542328,541.795593 470.570770,545.715942 
	C472.976624,554.886780 469.078461,561.860718 464.204651,568.805359 
	C450.926392,587.725098 433.124084,602.399536 417.211517,618.839600 
	C405.662933,630.770935 393.544525,642.124207 380.080536,651.934631 
	C378.095551,653.380981 376.184326,655.040466 372.515198,654.819336 
	C379.350891,630.126526 391.249329,607.379883 397.462372,581.321350 
	C384.033936,586.920166 374.068848,596.063416 361.548187,600.578247 
	C360.127533,596.302490 360.427063,592.742493 360.763367,589.340881 
	C362.091583,575.905273 362.190979,562.505981 360.770447,549.073486 
	C360.343536,545.036621 362.313873,542.455505 366.488953,541.663208 
	C369.415985,541.107727 372.296509,540.307251 375.585632,539.524414 
z"/>
<path fill="#000000" opacity="1.000000" stroke="none" 
	d="
M281.908783,607.090698 
	C271.783875,598.640015 262.984894,589.375183 254.831009,579.495300 
	C251.775589,575.793030 249.139130,571.741943 246.040924,568.078857 
	C239.859116,560.769958 238.631546,552.630249 240.406204,543.377930 
	C243.960190,524.848633 246.109467,506.091980 248.702057,487.407806 
	C250.475327,474.628265 252.582367,461.895050 254.536270,449.140533 
	C254.782349,447.534180 254.550323,445.453827 256.718903,445.177307 
	C258.887817,444.900726 259.855927,446.766571 260.647797,448.417969 
	C265.611786,458.769989 271.609375,468.545837 277.267609,478.513916 
	C286.199402,494.248993 295.555298,509.675110 308.154633,522.837341 
	C317.618439,532.723938 329.164825,538.963562 342.569916,541.472107 
	C347.807434,542.452148 349.626038,544.803528 349.468475,550.182129 
	C349.093109,562.994080 349.495056,575.827148 349.261353,588.645874 
	C349.193054,592.392578 351.672729,596.064209 349.165619,600.618042 
	C336.593750,595.674072 325.930176,587.112244 312.749237,580.446228 
	C319.427917,606.509399 330.707458,629.691223 338.033539,654.002563 
	C336.364349,655.864502 335.175507,654.790955 333.887360,653.998169 
	C325.797394,649.018433 318.411316,643.094482 311.592407,636.544373 
	C301.626190,626.971069 291.968628,617.076538 281.908783,607.090698 
z"/>
<path fill="#000000" opacity="1.000000" stroke="none" 
	d="
M558.517090,175.603363 
	C556.312378,176.312073 555.539429,174.713593 554.549072,173.726944 
	C542.981445,162.202576 531.565613,150.522995 519.852844,139.148926 
	C516.250366,135.650681 516.759766,133.500900 520.257996,130.405991 
	C528.292603,123.297775 528.006042,123.229050 523.367920,113.418938 
	C511.657806,88.651047 499.979279,63.866230 488.590515,38.949982 
	C486.180878,33.678196 483.519287,28.303467 482.613007,22.176224 
	C486.030426,22.214699 487.590607,24.306103 489.288696,26.002932 
	C522.053528,58.743820 554.811584,91.491570 587.511475,124.297264 
	C595.833130,132.645828 597.131042,130.401138 587.819458,141.388428 
	C578.185242,152.756378 568.493835,164.075943 558.517090,175.603363 
z"/>
<path fill="#000000" opacity="1.000000" stroke="none" 
	d="
M207.361984,71.136459 
	C199.644974,87.729950 192.172440,104.022728 184.419754,120.181091 
	C182.741135,123.679688 184.681000,125.205574 186.517593,127.440826 
	C188.812393,130.233749 194.078705,131.128876 193.767548,135.032883 
	C193.473145,138.726883 189.137970,140.833542 186.498245,143.537537 
	C176.496048,153.783279 166.368683,163.906830 156.283386,174.071396 
	C155.472290,174.888870 154.734589,175.836594 153.021744,175.984055 
	C146.133667,170.576553 141.243301,162.927765 135.195068,156.374771 
	C129.581940,150.293167 124.499390,143.719162 119.234680,137.319626 
	C115.718246,133.045197 115.715706,130.817764 119.696548,127.098564 
	C155.466309,93.679840 189.194321,58.202179 223.984818,23.796642 
	C224.917282,22.874487 225.770828,21.754667 228.332977,22.308323 
	C223.355652,39.402477 214.363876,54.660034 207.361984,71.136459 
z"/>
<path fill="#000000" opacity="1.000000" stroke="none" 
	d="
M196.016785,205.024780 
	C187.902451,212.893539 190.148682,213.026703 182.295883,205.363892 
	C179.084793,202.230469 175.951859,199.015930 172.704758,195.920746 
	C170.627808,193.940933 170.398285,192.232071 172.584900,190.070084 
	C184.755569,178.036499 196.885117,165.960526 208.929901,153.801147 
	C211.271194,151.437576 212.964569,151.709366 215.122665,153.951401 
	C219.270248,158.260300 223.463303,162.543976 227.892639,166.556488 
	C230.798767,169.189133 230.173477,170.986176 227.680237,173.435822 
	C217.130112,183.801376 206.725052,194.314575 196.016785,205.024780 
z"/>
<path fill="#000000" opacity="1.000000" stroke="none" 
	d="
M532.060181,202.038437 
	C529.814148,204.296143 527.813782,206.293182 525.833984,208.310471 
	C521.983093,212.234406 520.671692,212.450806 517.045959,208.139542 
	C506.643158,195.770004 494.601166,185.014954 483.347046,173.488113 
	C480.361847,170.430573 480.079163,168.187286 483.439758,165.298920 
	C488.447937,160.994537 493.210724,156.404663 498.035217,151.975479 
	C500.923828,153.136307 502.502167,155.351776 504.347900,157.186798 
	C514.842041,167.619919 525.292175,178.097458 535.720459,188.596481 
	C540.200684,193.107056 540.180542,193.516251 535.858276,198.277222 
	C534.742371,199.506302 533.499634,200.620163 532.060181,202.038437 
z"/>
</svg>